<svg xmlns="http://www.w3.org/2000/svg" width="256" height="256" viewBox="0 0 100 100"><rect width="100" height="100" rx="20" fill="#6a5acd"></rect><path d="M38.70 81.50L38.70 79.52L41.23 79.52Q46.63 79.52 46.63 76.37L46.63 76.37L46.63 21.65L33.84 21.65Q30.25 21.65 28.94 25.75Q27.63 29.84 27.37 34.61L27.37 34.61L25.39 34.61L25.39 18.50L74.61 18.50L74.61 34.61L72.64 34.61Q72.36 29.84 71.06 25.75Q69.75 21.65 66.16 21.65L66.16 21.65L53.47 21.65L53.47 76.37Q53.47 77.99 54.77 78.75Q56.08 79.52 58.78 79.52L58.78 79.52L61.30 79.52L61.30 81.50L38.70 81.50Z" fill="#fff"></path></svg>